<?xml version="1.0" standalone="no"?><!DOCTYPE svg PUBLIC "-//W3C//DTD SVG 1.1//EN" "http://www.w3.org/Graphics/SVG/1.1/DTD/svg11.dtd"><svg t="1590125636502" class="icon" viewBox="0 0 1024 1024" version="1.1" xmlns="http://www.w3.org/2000/svg" p-id="1843" xmlns:xlink="http://www.w3.org/1999/xlink" width="16" height="16"><defs><style type="text/css"></style></defs><path d="M920.82 1003.404H102.98c-45.491 0-82.784-37.193-82.784-82.784V457.71h983.408v462.91c0 45.491-37.193 82.784-82.784 82.784z" fill="#138B8B" p-id="1844"></path><path d="M898.824 1024H124.976C56.089 1024 0 966.811 0 896.425v-459.31h1023.8v459.31c0 70.386-56.089 127.575-124.976 127.575zM40.392 478.307v418.118c0 47.59 37.993 86.383 84.584 86.383h773.848c46.691 0 84.584-38.692 84.584-86.383V478.307H40.392z" fill="#231815" p-id="1845"></path><path d="M532.196 477.907H88.883V0h443.313v477.907z m-403.821-40.292h364.229V40.292h-364.23v397.323z" fill="#231815" p-id="1846"></path><path d="M935.717 478.307H491.504v-364.03h444.113v364.03z m-403.82-41.192h363.428V155.57H531.896v281.545z" fill="#231815" p-id="1847"></path><path d="M649.973 475.007c-9.398 0-16.997-7.798-16.997-17.296V134.874c0-9.598 7.599-17.297 16.997-17.297s16.997 7.799 16.997 17.297V457.71c-0.1 9.598-7.599 17.296-16.997 17.296z m130.075 0c-9.399 0-16.997-7.798-16.997-17.296V134.874c0-9.598 7.598-17.297 16.997-17.297s16.996 7.799 16.996 17.297V457.71c0 9.598-7.598 17.296-16.996 17.296z" fill="#231815" p-id="1848"></path></svg>